<svg width="40" height="51" viewBox="0 0 40 51" fill="none" xmlns="http://www.w3.org/2000/svg">
<path d="M20 0C14.6957 0 9.60859 2.14927 5.85786 5.975C2.10714 9.80073 0 14.9895 0 20.3999C0 34.1699 17.625 49.7248 18.375 50.3878C18.8278 50.7829 19.4041 51 20 51C20.5959 51 21.1722 50.7829 21.625 50.3878C22.5 49.7248 40 34.1699 40 20.3999C40 14.9895 37.8929 9.80073 34.1421 5.975C30.3914 2.14927 25.3043 0 20 0ZM20 45.0074C14.675 39.9074 5 28.9169 5 20.3999C5 16.3421 6.58035 12.4505 9.3934 9.58124C12.2064 6.71194 16.0218 5.09998 20 5.09998C23.9782 5.09998 27.7936 6.71194 30.6066 9.58124C33.4197 12.4505 35 16.3421 35 20.3999C35 28.9169 25.325 39.9329 20 45.0074ZM20 10.2C18.0222 10.2 16.0888 10.7982 14.4443 11.919C12.7998 13.0398 11.5181 14.6328 10.7612 16.4966C10.0043 18.3604 9.80629 20.4112 10.1921 22.3898C10.578 24.3685 11.5304 26.1859 12.9289 27.6124C14.3275 29.0389 16.1093 30.0103 18.0491 30.4039C19.9889 30.7975 21.9996 30.5955 23.8268 29.8235C25.6541 29.0515 27.2159 27.7441 28.3147 26.0667C29.4135 24.3894 30 22.4173 30 20.3999C30 17.6947 28.9464 15.1003 27.0711 13.1875C25.1957 11.2746 22.6522 10.2 20 10.2ZM20 25.4999C19.0111 25.4999 18.0444 25.2008 17.2221 24.6404C16.3999 24.08 15.759 23.2835 15.3806 22.3516C15.0022 21.4197 14.9031 20.3943 15.0961 19.405C15.289 18.4157 15.7652 17.5069 16.4645 16.7937C17.1637 16.0805 18.0546 15.5947 19.0245 15.3979C19.9945 15.2012 20.9998 15.3022 21.9134 15.6882C22.827 16.0742 23.6079 16.7278 24.1573 17.5665C24.7068 18.4052 25 19.3913 25 20.3999C25 21.7525 24.4732 23.0497 23.5355 24.0062C22.5979 24.9626 21.3261 25.4999 20 25.4999Z" fill="#232B12"/>
</svg>
