<svg width="50" height="50" viewBox="0 0 50 50" fill="none" xmlns="http://www.w3.org/2000/svg">
<path d="M18.975 24.4958L23.7333 19.725L19.4542 15.4333L17.0437 17.8437L15.5687 16.3708L17.9688 13.9583L13.9021 9.89163L9.13125 14.6625L18.975 24.4958ZM35.2958 40.8291L40.0667 36.0583L36.0021 31.9916L33.5896 34.3916L32.1146 32.9166L34.5146 30.5041L30.2646 26.2666L25.5042 31.025L35.2958 40.8291ZM14.9021 41.6666H8.33333V35.0958L17.4875 25.9416L6.25 14.6625L13.9021 7.01038L25.2333 18.302L34.5396 8.98329C34.7687 8.75274 35.0104 8.58676 35.2646 8.48538C35.5187 8.38399 35.7896 8.33329 36.0771 8.33329C36.366 8.33329 36.6368 8.38399 36.8896 8.48538C37.1424 8.58676 37.3847 8.75274 37.6167 8.98329L41.0167 12.5166C41.2472 12.7458 41.4069 12.9875 41.4958 13.2416C41.5833 13.4944 41.6271 13.7652 41.6271 14.0541C41.6271 14.343 41.5826 14.6055 41.4937 14.8416C41.4062 15.0777 41.2472 15.3111 41.0167 15.5416L31.7917 24.8187L42.9896 36.0979L35.3375 43.75L24.0583 32.5125L14.9021 41.6666ZM10.4167 39.5833H14.0146L34.4729 19.1395L30.8604 15.5291L10.4167 35.9875V39.5833ZM32.6917 17.3187L30.8604 15.5291L34.4708 19.1395L32.6917 17.3187Z" fill="#353535"/>
</svg>
