<svg width="50" height="50" viewBox="0 0 50 50" fill="none" xmlns="http://www.w3.org/2000/svg">
<path d="M29.1668 19.6876H27.0835V17.6042C27.0835 17.0517 26.864 16.5218 26.4733 16.1311C26.0826 15.7404 25.5527 15.5209 25.0001 15.5209C24.4476 15.5209 23.9177 15.7404 23.527 16.1311C23.1363 16.5218 22.9168 17.0517 22.9168 17.6042V19.6876H20.8335C20.2809 19.6876 19.751 19.9071 19.3603 20.2978C18.9696 20.6885 18.7501 21.2184 18.7501 21.7709C18.7501 22.3234 18.9696 22.8533 19.3603 23.244C19.751 23.6347 20.2809 23.8542 20.8335 23.8542H22.9168V25.9376C22.9168 26.4901 23.1363 27.02 23.527 27.4107C23.9177 27.8014 24.4476 28.0209 25.0001 28.0209C25.5527 28.0209 26.0826 27.8014 26.4733 27.4107C26.864 27.02 27.0835 26.4901 27.0835 25.9376V23.8542H29.1668C29.7193 23.8542 30.2492 23.6347 30.6399 23.244C31.0306 22.8533 31.2501 22.3234 31.2501 21.7709C31.2501 21.2184 31.0306 20.6885 30.6399 20.2978C30.2492 19.9071 29.7193 19.6876 29.1668 19.6876ZM42.6251 20.0626C42.355 17.233 41.4078 14.5101 39.8635 12.1239C38.3191 9.73761 36.2231 7.75817 33.7525 6.35281C31.2818 4.94745 28.5092 4.15747 25.6688 4.04962C22.8285 3.94177 20.0039 4.51922 17.4338 5.73318C14.8637 6.94713 12.6236 8.76192 10.9028 11.0242C9.18192 13.2865 8.03093 15.9297 7.54706 18.7306C7.06318 21.5315 7.26064 24.4077 8.12274 27.1162C8.98485 29.8247 10.4863 32.2859 12.5001 34.2917L23.5418 45.3542C23.7355 45.5495 23.9659 45.7045 24.2198 45.8102C24.4736 45.916 24.7459 45.9705 25.021 45.9705C25.296 45.9705 25.5683 45.916 25.8222 45.8102C26.076 45.7045 26.3064 45.5495 26.5001 45.3542L37.5001 34.2917C39.3568 32.4489 40.78 30.216 41.6664 27.7548C42.5529 25.2936 42.8804 22.666 42.6251 20.0626ZM34.5835 31.3542L25.0001 40.9376L15.4168 31.3542C14.0045 29.9418 12.9226 28.2341 12.249 26.3537C11.5754 24.4734 11.3268 22.4671 11.521 20.4792C11.7164 18.4607 12.358 16.5108 13.3992 14.7706C14.4405 13.0303 15.8554 11.5432 17.5418 10.4167C19.7521 8.94847 22.3466 8.16526 25.0001 8.16526C27.6536 8.16526 30.2482 8.94847 32.4585 10.4167C34.1397 11.5388 35.5515 13.0194 36.5925 14.752C37.6335 16.4846 38.2779 18.4263 38.4793 20.4376C38.6798 22.4322 38.4343 24.4465 37.7605 26.3345C37.0867 28.2226 36.0015 29.9372 34.5835 31.3542Z" fill="#353535"/>
</svg>
